<svg width="13" height="13" viewBox="0 0 13 13" fill="none" xmlns="http://www.w3.org/2000/svg">
<path d="M6.5 3.375C4.775 3.375 3.375 4.775 3.375 6.5C3.375 8.225 4.775 9.625 6.5 9.625C8.225 9.625 9.625 8.225 9.625 6.5C9.625 4.775 8.225 3.375 6.5 3.375ZM6.5 0.25C3.05 0.25 0.25 3.05 0.25 6.5C0.25 9.95 3.05 12.75 6.5 12.75C9.95 12.75 12.75 9.95 12.75 6.5C12.75 3.05 9.95 0.25 6.5 0.25ZM6.5 11.5C3.7375 11.5 1.5 9.2625 1.5 6.5C1.5 3.7375 3.7375 1.5 6.5 1.5C9.2625 1.5 11.5 3.7375 11.5 6.5C11.5 9.2625 9.2625 11.5 6.5 11.5Z" fill="#686868"/>
</svg>
