<svg width="19" height="18" viewBox="0 0 19 18" fill="none" xmlns="http://www.w3.org/2000/svg">
<path d="M0.5 12.8571C0.5 13.5672 1.07563 14.1429 1.78571 14.1429H2.42857C3.49369 14.1429 4.35714 15.0063 4.35714 16.0714V16.7143C4.35714 17.4244 4.93278 18 5.64286 18C6.35294 18 6.92857 17.4244 6.92857 16.7143V13.5714C6.92857 12.4669 6.03314 11.5714 4.92857 11.5714H1.78571C1.07563 11.5714 0.5 12.1471 0.5 12.8571ZM4.35714 1.92857C4.35714 2.99369 3.49369 3.85714 2.42857 3.85714H1.78572C1.07563 3.85714 0.5 4.43278 0.5 5.14286C0.5 5.85294 1.07563 6.42857 1.78571 6.42857H4.92857C6.03314 6.42857 6.92857 5.53314 6.92857 4.42857V1.28571C6.92857 0.575633 6.35294 0 5.64286 0C4.93278 0 4.35714 0.575634 4.35714 1.28571V1.92857ZM12.0714 16.7143C12.0714 17.4244 12.6471 18 13.3571 18C14.0672 18 14.6429 17.4244 14.6429 16.7143V16.0714C14.6429 15.0063 15.5063 14.1429 16.5714 14.1429H17.2143C17.9244 14.1429 18.5 13.5672 18.5 12.8571C18.5 12.1471 17.9244 11.5714 17.2143 11.5714H14.0714C12.9669 11.5714 12.0714 12.4669 12.0714 13.5714V16.7143ZM16.5714 3.85714C15.5063 3.85714 14.6429 2.99369 14.6429 1.92857V1.28572C14.6429 0.575635 14.0672 0 13.3571 0C12.6471 0 12.0714 0.575634 12.0714 1.28571V4.42857C12.0714 5.53314 12.9669 6.42857 14.0714 6.42857H17.2143C17.9244 6.42857 18.5 5.85294 18.5 5.14286C18.5 4.43278 17.9244 3.85714 17.2143 3.85714H16.5714Z" fill="white"/>
</svg>
