<svg width="13" height="13" viewBox="0 0 13 13" fill="none" xmlns="http://www.w3.org/2000/svg">
<path d="M5.25 9V8.375H0.88125L0.875 10.875C0.875 11.5688 1.43125 12.125 2.125 12.125H10.875C11.5688 12.125 12.125 11.5688 12.125 10.875V8.375H7.75V9H5.25ZM11.5 3.375H8.99375V2.125L7.74375 0.875H5.24375L3.99375 2.125V3.375H1.5C0.8125 3.375 0.25 3.9375 0.25 4.625V6.5C0.25 7.19375 0.80625 7.75 1.5 7.75H5.25V6.5H7.75V7.75H11.5C12.1875 7.75 12.75 7.1875 12.75 6.5V4.625C12.75 3.9375 12.1875 3.375 11.5 3.375ZM7.75 3.375H5.25V2.125H7.75V3.375Z" fill="#686868"/>
</svg>
