<svg width="15" height="15" viewBox="0 0 15 15" fill="none" xmlns="http://www.w3.org/2000/svg">
<path d="M12.8904 6.79651C12.8904 7.7025 12.1559 8.43702 11.2499 8.43702C10.3439 8.43702 9.60938 7.7025 9.60938 6.79651C9.60938 5.89053 10.3439 5.15601 11.2499 5.15601C12.1559 5.15601 12.8904 5.89053 12.8904 6.79651Z" fill="#686868"/>
<path d="M8.71876 6.56226H1.875C0.839376 6.56226 0 7.2969 0 8.20288V9.6561C0 9.75957 0.0838214 9.84362 0.187524 9.84362H8.71879C8.8226 9.84362 8.90631 9.75957 8.90631 9.6561V6.74979C8.90631 6.64608 8.8226 6.56226 8.71879 6.56226L8.71876 6.56226Z" fill="#686868"/>
<path d="M3.46852 3.12477H4.84373L4.84361 4.49987C4.84361 4.60357 4.92743 4.68739 5.03114 4.68739H6.21837C6.32207 4.68739 6.40589 4.60357 6.40589 4.49987V3.12466H7.78087C7.88468 3.12466 7.96839 3.04083 7.96839 2.93713V1.7499C7.96839 1.6462 7.88468 1.56237 7.78087 1.56237H6.40589L6.40578 0.187402C6.40578 0.0836995 6.32196 -0.00012207 6.21825 -0.00012207H5.03102C4.92732 -0.00012207 4.8435 0.0836995 4.8435 0.187402V1.56261H3.46829C3.36458 1.56261 3.28076 1.64643 3.28076 1.75014V2.93737C3.28099 3.04084 3.36458 3.12478 3.46852 3.12478L3.46852 3.12477Z" fill="#686868"/>
<path d="M9.84387 9.84356H12.6564C12.9155 9.84356 13.1252 9.63395 13.1252 9.37469C13.1252 9.11556 12.9154 8.90582 12.6564 8.90582H9.84387C9.58485 8.90582 9.375 9.11544 9.375 9.37469C9.375 9.63383 9.58485 9.84356 9.84387 9.84356Z" fill="#686868"/>
<path d="M13.5938 4.87475V10.3123H0.187524C0.0838217 10.3123 0 10.3961 0 10.4998V14.8123C0 14.9158 0.0838217 14.9998 0.187524 14.9998H1.21883C1.32254 14.9998 1.40636 14.9158 1.40636 14.8123V12.6562H13.5939V14.8125C13.5939 14.916 13.6779 15 13.7814 15H14.8127C14.9162 14.9998 15 14.9158 15 14.8123V4.87478C15 4.77108 14.9162 4.68726 14.8125 4.68726H13.7812C13.6773 4.68726 13.5939 4.77108 13.5939 4.87478L13.5938 4.87475Z" fill="#686868"/>
</svg>
