<svg width="19" height="12" viewBox="0 0 19 12" fill="none" xmlns="http://www.w3.org/2000/svg">
<path d="M12.8335 5.16126C14.2168 5.16126 15.3252 4.03733 15.3252 2.64499C15.3252 1.25266 14.2168 0.128723 12.8335 0.128723C11.4502 0.128723 10.3335 1.25266 10.3335 2.64499C10.3335 4.03733 11.4502 5.16126 12.8335 5.16126ZM6.16683 5.16126C7.55016 5.16126 8.65849 4.03733 8.65849 2.64499C8.65849 1.25266 7.55016 0.128723 6.16683 0.128723C4.7835 0.128723 3.66683 1.25266 3.66683 2.64499C3.66683 4.03733 4.7835 5.16126 6.16683 5.16126ZM6.16683 6.83877C4.22516 6.83877 0.333496 7.82012 0.333496 9.77442V11.8713H12.0002V9.77442C12.0002 7.82012 8.1085 6.83877 6.16683 6.83877ZM12.8335 6.83877C12.5918 6.83877 12.3168 6.85555 12.0252 6.88071C12.9918 7.58527 13.6668 8.53306 13.6668 9.77442V11.8713H18.6668V9.77442C18.6668 7.82012 14.7752 6.83877 12.8335 6.83877Z" fill="white"/>
</svg>
