<svg width="15" height="11" viewBox="0 0 15 11" fill="none" xmlns="http://www.w3.org/2000/svg">
<path fill-rule="evenodd" clip-rule="evenodd" d="M10.4189 6.21082C11.2752 6.79585 11.8752 7.58847 11.8752 8.64531V10.5325H14.3752V8.64531C14.3752 7.27394 12.1439 6.46244 10.4189 6.21082Z" fill="#686868"/>
<path d="M5.62549 5.49995C7.0062 5.49995 8.12549 4.37337 8.12549 2.98368C8.12549 1.59398 7.0062 0.467407 5.62549 0.467407C4.24478 0.467407 3.12549 1.59398 3.12549 2.98368C3.12549 4.37337 4.24478 5.49995 5.62549 5.49995Z" fill="#686868"/>
<path fill-rule="evenodd" clip-rule="evenodd" d="M9.3752 5.49995C10.7564 5.49995 11.8752 4.37392 11.8752 2.98368C11.8752 1.59344 10.7564 0.467407 9.3752 0.467407C9.08145 0.467407 8.80645 0.530314 8.54395 0.618383C9.0627 1.26632 9.3752 2.0904 9.3752 2.98368C9.3752 3.87695 9.0627 4.70103 8.54395 5.34897C8.80645 5.43704 9.08145 5.49995 9.3752 5.49995Z" fill="#686868"/>
<path fill-rule="evenodd" clip-rule="evenodd" d="M5.625 6.12903C3.95625 6.12903 0.625 6.97198 0.625 8.6453V10.5325H10.625V8.6453C10.625 6.97198 7.29375 6.12903 5.625 6.12903Z" fill="#686868"/>
</svg>
