<svg width="16" height="17" viewBox="0 0 16 17" fill="none" xmlns="http://www.w3.org/2000/svg">
<path d="M12.8032 12.0063C12.6864 11.8895 12.6704 11.6879 12.76 11.5487C13.464 10.4655 13.8768 9.17594 13.8768 7.79034C13.8768 3.96314 10.7632 0.851135 6.9392 0.851135C3.112 0.851135 0 3.96314 0 7.79034C0 11.6159 3.112 14.7279 6.9392 14.7279C8.4288 14.7279 9.808 14.2495 10.9408 13.4463C11.0736 13.3503 11.2736 13.3631 11.3904 13.4783L13.8704 15.9583C13.8864 15.9743 13.904 15.9903 13.9216 16.0031C13.9504 16.0271 14.0704 16.1391 14.1856 16.2559L14.48 16.5487C14.5968 16.6639 14.7856 16.6639 14.9008 16.5487L15.912 15.5375C16.0288 15.4207 16.0288 15.2319 15.9136 15.1151L12.8032 12.0063ZM11.136 11.0223C10.9072 11.3199 10.6496 11.5919 10.3648 11.8335C9.44 12.6191 8.2448 13.0959 6.9392 13.0959C4.0128 13.0959 1.632 10.7151 1.632 7.79034C1.632 4.86554 4.0128 2.48314 6.9392 2.48314C9.864 2.48314 12.2448 4.86394 12.2448 7.79034C12.2448 9.00634 11.8272 10.1263 11.136 11.0223Z" fill="#CACCCF"/>
</svg>
